<svg width="137" height="34" viewBox="0 0 137 34" fill="none" xmlns="http://www.w3.org/2000/svg">
<path d="M11.34 11.96V14.7H7.62V26H4.2V14.7H0.48V11.96H11.34ZM16.8764 14.7V17.54H21.4564V20.18H16.8764V23.26H22.0564V26H13.4564V11.96H22.0564V14.7H16.8764ZM24.0967 18.96C24.0967 17.5733 24.3967 16.34 24.9967 15.26C25.5967 14.1667 26.4301 13.32 27.4967 12.72C28.5767 12.1067 29.7967 11.8 31.1567 11.8C32.8234 11.8 34.2501 12.24 35.4367 13.12C36.6234 14 37.4167 15.2 37.8167 16.72H34.0567C33.7767 16.1333 33.3767 15.6867 32.8567 15.38C32.3501 15.0733 31.7701 14.92 31.1167 14.92C30.0634 14.92 29.2101 15.2867 28.5567 16.02C27.9034 16.7533 27.5767 17.7333 27.5767 18.96C27.5767 20.1867 27.9034 21.1667 28.5567 21.9C29.2101 22.6333 30.0634 23 31.1167 23C31.7701 23 32.3501 22.8467 32.8567 22.54C33.3767 22.2333 33.7767 21.7867 34.0567 21.2H37.8167C37.4167 22.72 36.6234 23.92 35.4367 24.8C34.2501 25.6667 32.8234 26.1 31.1567 26.1C29.7967 26.1 28.5767 25.8 27.4967 25.2C26.4301 24.5867 25.5967 23.74 24.9967 22.66C24.3967 21.58 24.0967 20.3467 24.0967 18.96ZM52.4711 11.96V26H49.0511V20.22H43.7311V26H40.3111V11.96H43.7311V17.46H49.0511V11.96H52.4711ZM67.9 26H64.48L58.76 17.34V26H55.34V11.96H58.76L64.48 20.66V11.96H67.9V26ZM79.5191 23.52H74.2791L73.4391 26H69.8591L74.9391 11.96H78.8991L83.9791 26H80.3591L79.5191 23.52ZM78.6391 20.88L76.8991 15.74L75.1791 20.88H78.6391ZM98.4852 26H95.0652L89.3452 17.34V26H85.9252V11.96H89.3452L95.0652 20.66V11.96H98.4852V26ZM110.104 23.52H104.864L104.024 26H100.444L105.524 11.96H109.484L114.564 26H110.944L110.104 23.52ZM109.224 20.88L107.484 15.74L105.764 20.88H109.224ZM121.59 26.14C120.564 26.14 119.644 25.9733 118.83 25.64C118.017 25.3067 117.364 24.8133 116.87 24.16C116.39 23.5067 116.137 22.72 116.11 21.8H119.75C119.804 22.32 119.984 22.72 120.29 23C120.597 23.2667 120.997 23.4 121.49 23.4C121.997 23.4 122.397 23.2867 122.69 23.06C122.984 22.82 123.13 22.4933 123.13 22.08C123.13 21.7333 123.01 21.4467 122.77 21.22C122.544 20.9933 122.257 20.8067 121.91 20.66C121.577 20.5133 121.097 20.3467 120.47 20.16C119.564 19.88 118.824 19.6 118.25 19.32C117.677 19.04 117.184 18.6267 116.77 18.08C116.357 17.5333 116.15 16.82 116.15 15.94C116.15 14.6333 116.624 13.6133 117.57 12.88C118.517 12.1333 119.75 11.76 121.27 11.76C122.817 11.76 124.064 12.1333 125.01 12.88C125.957 13.6133 126.464 14.64 126.53 15.96H122.83C122.804 15.5067 122.637 15.1533 122.33 14.9C122.024 14.6333 121.63 14.5 121.15 14.5C120.737 14.5 120.404 14.6133 120.15 14.84C119.897 15.0533 119.77 15.3667 119.77 15.78C119.77 16.2333 119.984 16.5867 120.41 16.84C120.837 17.0933 121.504 17.3667 122.41 17.66C123.317 17.9667 124.05 18.26 124.61 18.54C125.184 18.82 125.677 19.2267 126.09 19.76C126.504 20.2933 126.71 20.98 126.71 21.82C126.71 22.62 126.504 23.3467 126.09 24C125.69 24.6533 125.104 25.1733 124.33 25.56C123.557 25.9467 122.644 26.14 121.59 26.14Z" fill="#ED0303"/>
<rect x="130.725" y="4.69946" width="2" height="6.39472" rx="1" transform="rotate(40 130.725 4.69946)" fill="#ED0303"/>
<rect x="124.395" y="0.399994" width="2" height="9" rx="1" transform="rotate(2.51516 124.395 0.399994)" fill="#ED0303"/>
<rect x="137" y="11.4" width="2" height="9" rx="1" transform="rotate(89.6834 137 11.4)" fill="#ED0303"/>
</svg>
